<svg width="34" height="35" viewBox="0 0 34 35" fill="none" xmlns="http://www.w3.org/2000/svg">
<path fill-rule="evenodd" clip-rule="evenodd" d="M4 10.0625C4 9.4757 4.4757 9 5.0625 9H28.4375C29.0243 9 29.5 9.4757 29.5 10.0625C29.5 10.6493 29.0243 11.125 28.4375 11.125H5.0625C4.4757 11.125 4 10.6493 4 10.0625ZM4 17.5C4 16.9132 4.4757 16.4375 5.0625 16.4375H28.4375C29.0243 16.4375 29.5 16.9132 29.5 17.5C29.5 18.0868 29.0243 18.5625 28.4375 18.5625H5.0625C4.4757 18.5625 4 18.0868 4 17.5ZM15.6875 24.9375C15.6875 24.3507 16.1632 23.875 16.75 23.875H28.4375C29.0243 23.875 29.5 24.3507 29.5 24.9375C29.5 25.5243 29.0243 26 28.4375 26H16.75C16.1632 26 15.6875 25.5243 15.6875 24.9375Z" fill="#262626"/>
</svg>
